<?xml version="1.0" standalone="no"?><!DOCTYPE svg PUBLIC "-//W3C//DTD SVG 1.1//EN" "http://www.w3.org/Graphics/SVG/1.1/DTD/svg11.dtd"><svg t="1653298267755" class="icon" viewBox="0 0 1024 1024" version="1.1" xmlns="http://www.w3.org/2000/svg" p-id="2635" xmlns:xlink="http://www.w3.org/1999/xlink" width="200" height="200"><defs><style type="text/css">@font-face { font-family: feedback-iconfont; src: url("//at.alicdn.com/t/font_1031158_u69w8yhxdu.woff2?t=1630033759944") format("woff2"), url("//at.alicdn.com/t/font_1031158_u69w8yhxdu.woff?t=1630033759944") format("woff"), url("//at.alicdn.com/t/font_1031158_u69w8yhxdu.ttf?t=1630033759944") format("truetype"); }
</style></defs><path d="M642.998 100c32.109 0 58.232 26.123 58.232 58.232s-26.123 58.232-58.232 58.232-58.231-26.123-58.231-58.232S610.889 100 642.998 100m0-100c-87.389 0-158.231 70.843-158.231 158.232s70.843 158.232 158.231 158.232S801.23 245.621 801.23 158.232 730.387 0 642.998 0zM185.615 497.383c46.446 0 84.232 37.786 84.232 84.232 0 46.445-37.786 84.231-84.232 84.231-46.445 0-84.231-37.786-84.231-84.231-0.001-46.446 37.785-84.232 84.231-84.232m0-100c-101.749 0-184.231 82.483-184.231 184.232 0 101.748 82.483 184.231 184.231 184.231 101.748 0 184.232-82.483 184.232-184.231 0-101.749-82.484-184.232-184.232-184.232zM822.768 721.536c27.04 0 52.462 10.53 71.582 29.65S924 795.729 924 822.769s-10.53 52.461-29.65 71.581S849.808 924 822.768 924s-52.462-10.53-71.582-29.65-29.65-44.541-29.65-71.581 10.53-52.462 29.65-71.582 44.542-29.651 71.582-29.651m0-100c-111.138 0-201.232 90.095-201.232 201.232s90.095 201.231 201.232 201.231C933.904 1024 1024 933.905 1024 822.769c0-111.138-90.096-201.233-201.232-201.233z" fill="" p-id="2636"></path><path d="M318.493 542.5c-12.396 0-24.809-4.579-34.49-13.807-19.989-19.052-20.749-50.701-1.696-70.69l244-256c19.051-19.989 50.701-20.749 70.69-1.696 19.989 19.052 20.748 50.701 1.696 70.69l-244 256c-9.824 10.308-23.002 15.503-36.2 15.503zM654.458 832.511a49.772 49.772 0 0 1-22.99-5.632l-316-164c-24.51-12.72-34.067-42.901-21.347-67.411 12.721-24.51 42.903-34.068 67.412-21.347l316 164c24.51 12.72 34.067 42.901 21.347 67.411-8.901 17.149-26.35 26.979-44.422 26.979z" fill="" p-id="2637"></path></svg>