<?xml version="1.0" standalone="no"?><!DOCTYPE svg PUBLIC "-//W3C//DTD SVG 1.1//EN" "http://www.w3.org/Graphics/SVG/1.1/DTD/svg11.dtd"><svg t="1655364564180" class="icon" viewBox="0 0 1024 1024" version="1.1" xmlns="http://www.w3.org/2000/svg" p-id="2216" xmlns:xlink="http://www.w3.org/1999/xlink" width="200" height="200"><defs><style type="text/css">@font-face { font-family: feedback-iconfont; src: url("//at.alicdn.com/t/font_1031158_u69w8yhxdu.woff2?t=1630033759944") format("woff2"), url("//at.alicdn.com/t/font_1031158_u69w8yhxdu.woff?t=1630033759944") format("woff"), url("//at.alicdn.com/t/font_1031158_u69w8yhxdu.ttf?t=1630033759944") format("truetype"); }
</style></defs><path d="M759.808 591.872h-167.936v165.888c0 73.728 49.152 139.264 120.832 157.696 43.008 12.288 88.064 4.096 126.976-18.432 10.24-6.144 22.528-2.048 28.672 6.144s2.048 22.528-6.144 28.672c-47.104 28.672-104.448 36.864-157.696 22.528-90.112-24.576-151.552-106.496-151.552-198.656v-92.16-49.152-65.536H772.096c6.144 0 12.288 2.048 18.432 2.048 8.192 2.048 14.336 2.048 20.48 4.096 108.544 28.672 174.08 141.312 145.408 249.856-2.048 10.24-14.336 18.432-24.576 14.336-10.24-2.048-18.432-14.336-14.336-24.576 22.528-88.064-28.672-178.176-116.736-200.704-4.096 0-8.192-2.048-16.384-2.048-6.144 0-12.288-2.048-16.384-2.048-6.144 2.048-8.192 2.048-8.192 2.048z m-485.376-112.64c-112.64 0-204.8-92.16-204.8-204.8s92.16-204.8 204.8-204.8 204.8 92.16 204.8 204.8v204.8h-204.8z m163.84-204.8c0-90.112-73.728-163.84-163.84-163.84s-163.84 73.728-163.84 163.84 73.728 163.84 163.84 163.84h163.84v-163.84z m-163.84 276.48h204.8v204.8c0 112.64-92.16 204.8-204.8 204.8s-204.8-92.16-204.8-204.8 92.16-204.8 204.8-204.8z m0 40.96c-90.112 0-163.84 73.728-163.84 163.84s73.728 163.84 163.84 163.84 163.84-73.728 163.84-163.84v-163.84h-163.84z m481.28-112.64h-204.8v-204.8c0-112.64 92.16-204.8 204.8-204.8s204.8 92.16 204.8 204.8-92.16 204.8-204.8 204.8z m0-40.96c90.112 0 163.84-73.728 163.84-163.84s-73.728-163.84-163.84-163.84-163.84 73.728-163.84 163.84v163.84h163.84z" p-id="2217"></path></svg>