<?xml version="1.0" standalone="no"?><!DOCTYPE svg PUBLIC "-//W3C//DTD SVG 1.1//EN" "http://www.w3.org/Graphics/SVG/1.1/DTD/svg11.dtd"><svg t="1661419080104" class="icon" viewBox="0 0 1026 1024" version="1.1" xmlns="http://www.w3.org/2000/svg" p-id="4091" xmlns:xlink="http://www.w3.org/1999/xlink" width="200.390625" height="200"><defs><style type="text/css">@font-face { font-family: feedback-iconfont; src: url("//at.alicdn.com/t/font_1031158_u69w8yhxdu.woff2?t=1630033759944") format("woff2"), url("//at.alicdn.com/t/font_1031158_u69w8yhxdu.woff?t=1630033759944") format("woff"), url("//at.alicdn.com/t/font_1031158_u69w8yhxdu.ttf?t=1630033759944") format("truetype"); }
</style></defs><path d="M772.928 653.376C724.864 594.752 709.376 512 726.592 384L768 384 768 256l-128 0 0 128 22.08 0c-17.536 128 2.944 238.656 61.376 309.952 60.8 74.112 161.92 108.736 300.544 108.736l0-64C905.472 738.688 820.992 711.936 772.928 653.376z" p-id="4092" fill="#bfcbd9"></path><path d="M1024 453.952 1024 32C1024 14.336 1009.664 0 992 0L466.752 0 45.248 421.504C-4.48 471.168-5.12 552.704 43.84 603.2l362.432 374.144c23.872 24.64 55.744 38.208 89.792 38.208s65.92-13.568 89.728-38.208L1024 544l1.984-92.032L1024 453.952zM539.776 932.8c-23.296 24.128-64.192 24.128-87.616 0L89.792 558.656C65.024 533.12 65.344 491.904 90.496 466.752L493.248 64 960 64l0 453.248L539.776 932.8z" p-id="4093" fill="#bfcbd9"></path></svg>