<?xml version="1.0" standalone="no"?><!DOCTYPE svg PUBLIC "-//W3C//DTD SVG 1.1//EN" "http://www.w3.org/Graphics/SVG/1.1/DTD/svg11.dtd"><svg t="1656493258574" class="icon" viewBox="0 0 1024 1024" version="1.1" xmlns="http://www.w3.org/2000/svg" p-id="1959" xmlns:xlink="http://www.w3.org/1999/xlink" width="200" height="200"><defs><style type="text/css">@font-face { font-family: feedback-iconfont; src: url("//at.alicdn.com/t/font_1031158_u69w8yhxdu.woff2?t=1630033759944") format("woff2"), url("//at.alicdn.com/t/font_1031158_u69w8yhxdu.woff?t=1630033759944") format("woff"), url("//at.alicdn.com/t/font_1031158_u69w8yhxdu.ttf?t=1630033759944") format("truetype"); }
</style></defs><path d="M849.454545 285.789091H730.763636L558.545455 154.065455a50.269091 50.269091 0 0 0 4.18909-20.48 52.130909 52.130909 0 1 0-104.261818 0 53.061818 53.061818 0 0 0 5.585455 22.341818L296.96 285.789091H174.545455a116.363636 116.363636 0 0 0-116.363637 116.363636v424.029091a116.363636 116.363636 0 0 0 116.363637 116.363637h674.90909a116.363636 116.363636 0 0 0 116.363637-116.363637V402.152727a116.363636 116.363636 0 0 0-116.363637-116.363636zM505.018182 186.181818A37.236364 37.236364 0 0 0 512 186.181818a40.494545 40.494545 0 0 0 10.24-2.327273l132.654545 102.4H372.363636z m414.254545 641.861818a69.818182 69.818182 0 0 1-69.818182 69.818182H174.545455a69.818182 69.818182 0 0 1-69.818182-69.818182V402.152727a69.818182 69.818182 0 0 1 69.818182-69.818182h674.90909a69.818182 69.818182 0 0 1 69.818182 69.818182z" p-id="1960"></path><path d="M198.749091 419.374545h334.661818v163.84H198.749091zM198.749091 642.327273h626.501818v44.683636H198.749091zM198.749091 754.967273h626.501818v44.683636H198.749091z" p-id="1961"></path></svg>