<?xml version="1.0" standalone="no"?><!DOCTYPE svg PUBLIC "-//W3C//DTD SVG 1.1//EN" "http://www.w3.org/Graphics/SVG/1.1/DTD/svg11.dtd"><svg t="1661245881213" class="icon" viewBox="0 0 1024 1024" version="1.1" xmlns="http://www.w3.org/2000/svg" p-id="7400" xmlns:xlink="http://www.w3.org/1999/xlink" width="200" height="200"><defs><style type="text/css">@font-face { font-family: feedback-iconfont; src: url("//at.alicdn.com/t/font_1031158_u69w8yhxdu.woff2?t=1630033759944") format("woff2"), url("//at.alicdn.com/t/font_1031158_u69w8yhxdu.woff?t=1630033759944") format("woff"), url("//at.alicdn.com/t/font_1031158_u69w8yhxdu.ttf?t=1630033759944") format("truetype"); }
</style></defs><path d="M849.066667 179.2H174.933333C102.4 179.2 42.666667 234.666667 42.666667 307.2v409.6c0 72.533333 59.733333 132.266667 132.266666 132.266667h674.133334c72.533333 0 132.266667-59.733333 132.266666-132.266667V307.2c0-72.533333-59.733333-128-132.266666-128zM938.666667 716.8c0 46.933333-38.4 89.6-89.6 89.6H174.933333C128 802.133333 85.333333 763.733333 85.333333 716.8V307.2c0-46.933333 42.666667-85.333333 89.6-85.333333h674.133334c46.933333 0 89.6 38.4 89.6 89.6v405.333333z" fill="#bfcbd9" p-id="7401"></path><path d="M477.866667 354.133333c-8.533333-8.533333-17.066667-12.8-29.866667-12.8-25.6 0-51.2 21.333333-51.2 51.2v238.933334c0 12.8 4.266667 21.333333 8.533333 29.866666 8.533333 12.8 25.6 21.333333 42.666667 21.333334 8.533333 0 21.333333-4.266667 29.866667-8.533334L640 554.666667c4.266667-4.266667 8.533333-4.266667 8.533333-8.533334 8.533333-12.8 12.8-25.6 8.533334-38.4s-8.533333-29.866667-17.066667-38.4l-162.133333-115.2z m136.533333 162.133334l-162.133333 119.466666c-4.266667 4.266667-8.533333 0-12.8 0V392.533333c0-4.266667 4.266667-8.533333 8.533333-8.533333h4.266667l162.133333 119.466667c4.266667 0 4.266667 4.266667 4.266667 4.266666 0 4.266667 0 8.533333-4.266667 8.533334z" fill="#bfcbd9" p-id="7402"></path></svg>